<svg width="200" height="68" viewBox="0 0 200 68" fill="none" xmlns="http://www.w3.org/2000/svg">
<g clip-path="url(#clip0_791_426)">
<path d="M104.83 15.2809H109.63V36.6742H104.83V15.2809ZM95.4074 36.6742H90.6074V15.2809H95.4074V36.6742ZM105.185 27.9029H95.0519V23.716H105.185V27.9029ZM120.315 36.6742V19.3151H113.678V15.2809H131.752V19.3151H125.115V36.6742H120.315ZM140.402 36.6742V19.3151H133.764V15.2809H151.839V19.3151H145.201V36.6742H140.402ZM155.902 36.6742V15.2809H164.88C166.737 15.2809 168.337 15.5967 169.68 16.2283C171.024 16.8396 172.061 17.7258 172.791 18.8872C173.522 20.0485 173.887 21.434 173.887 23.0436C173.887 24.6328 173.522 26.0081 172.791 27.1694C172.061 28.3308 171.024 29.2272 169.68 29.8589C168.337 30.4701 166.737 30.7757 164.88 30.7757H158.569L160.702 28.5447V36.6742H155.902ZM160.702 29.0948L158.569 26.7416H164.613C166.095 26.7416 167.201 26.4156 167.932 25.7636C168.663 25.1116 169.028 24.2049 169.028 23.0436C169.028 21.8618 168.663 20.945 167.932 20.293C167.201 19.6411 166.095 19.3151 164.613 19.3151H158.569L160.702 16.9618V29.0948Z" fill="#5BB318"/>
<path d="M89.668 57.3034V47.6764H90.6546V56.4232H95.8813V57.3034H89.668ZM100.735 57.3721C100.06 57.3721 99.4509 57.2163 98.9087 56.9045C98.3754 56.5836 97.9532 56.1481 97.642 55.598C97.3309 55.0387 97.1754 54.4015 97.1754 53.6864C97.1754 52.9621 97.3309 52.3249 97.642 51.7747C97.9532 51.2246 98.3754 50.7937 98.9087 50.482C99.442 50.1702 100.051 50.0144 100.735 50.0144C101.429 50.0144 102.042 50.1702 102.575 50.482C103.118 50.7937 103.54 51.2246 103.842 51.7747C104.153 52.3249 104.309 52.9621 104.309 53.6864C104.309 54.4015 104.153 55.0387 103.842 55.598C103.54 56.1481 103.118 56.5836 102.575 56.9045C102.033 57.2163 101.42 57.3721 100.735 57.3721ZM100.735 56.5057C101.242 56.5057 101.691 56.3911 102.082 56.1619C102.473 55.9235 102.78 55.5934 103.002 55.1717C103.233 54.7408 103.349 54.2457 103.349 53.6864C103.349 53.1179 103.233 52.6228 103.002 52.2011C102.78 51.7793 102.473 51.4538 102.082 51.2246C101.691 50.9862 101.246 50.8671 100.749 50.8671C100.251 50.8671 99.8065 50.9862 99.4154 51.2246C99.0243 51.4538 98.7132 51.7793 98.482 52.2011C98.2509 52.6228 98.1354 53.1179 98.1354 53.6864C98.1354 54.2457 98.2509 54.7408 98.482 55.1717C98.7132 55.5934 99.0243 55.9235 99.4154 56.1619C99.8065 56.3911 100.246 56.5057 100.735 56.5057ZM109.895 60.0402C109.255 60.0402 108.641 59.9439 108.055 59.7514C107.468 59.5588 106.992 59.2838 106.628 58.9262L107.108 58.1835C107.437 58.4861 107.841 58.7245 108.321 58.8987C108.81 59.0821 109.326 59.1737 109.868 59.1737C110.757 59.1737 111.41 58.9583 111.828 58.5274C112.246 58.1056 112.455 57.4455 112.455 56.547V54.7453L112.588 53.5076L112.495 52.2698V50.0831H113.401V56.4232C113.401 57.6701 113.104 58.5824 112.508 59.16C111.921 59.7468 111.05 60.0402 109.895 60.0402ZM109.721 57.0283C109.055 57.0283 108.455 56.8816 107.921 56.5882C107.388 56.2857 106.966 55.8685 106.655 55.3367C106.352 54.8049 106.201 54.1952 106.201 53.5076C106.201 52.82 106.352 52.2148 106.655 51.6922C106.966 51.1604 107.388 50.7479 107.921 50.4545C108.455 50.1611 109.055 50.0144 109.721 50.0144C110.344 50.0144 110.904 50.1473 111.401 50.4132C111.899 50.6791 112.295 51.0733 112.588 51.596C112.881 52.1186 113.028 52.7558 113.028 53.5076C113.028 54.2594 112.881 54.8966 112.588 55.4192C112.295 55.9418 111.899 56.3407 111.401 56.6157C110.904 56.8908 110.344 57.0283 109.721 57.0283ZM109.815 56.1619C110.33 56.1619 110.788 56.0519 111.188 55.8318C111.588 55.6026 111.904 55.2909 112.135 54.8966C112.366 54.4932 112.481 54.0302 112.481 53.5076C112.481 52.985 112.366 52.5266 112.135 52.1323C111.904 51.7381 111.588 51.4309 111.188 51.2109C110.788 50.9817 110.33 50.8671 109.815 50.8671C109.308 50.8671 108.85 50.9817 108.441 51.2109C108.041 51.4309 107.726 51.7381 107.495 52.1323C107.272 52.5266 107.161 52.985 107.161 53.5076C107.161 54.0302 107.272 54.4932 107.495 54.8966C107.726 55.2909 108.041 55.6026 108.441 55.8318C108.85 56.0519 109.308 56.1619 109.815 56.1619ZM116.702 57.3034V50.0831H117.649V57.3034H116.702ZM117.182 48.4878C116.986 48.4878 116.822 48.4191 116.689 48.2815C116.555 48.144 116.489 47.979 116.489 47.7864C116.489 47.5939 116.555 47.4334 116.689 47.3051C116.822 47.1675 116.986 47.0988 117.182 47.0988C117.378 47.0988 117.542 47.163 117.675 47.2913C117.809 47.4197 117.875 47.5801 117.875 47.7727C117.875 47.9744 117.809 48.144 117.675 48.2815C117.551 48.4191 117.386 48.4878 117.182 48.4878ZM122.829 57.3721C122.252 57.3721 121.705 57.2896 121.189 57.1246C120.674 56.9504 120.269 56.7349 119.976 56.4782L120.403 55.708C120.687 55.9281 121.052 56.1206 121.496 56.2857C121.941 56.4415 122.407 56.5195 122.896 56.5195C123.563 56.5195 124.043 56.414 124.336 56.2031C124.629 55.9831 124.776 55.6943 124.776 55.3367C124.776 55.0708 124.692 54.8645 124.523 54.7178C124.363 54.562 124.149 54.4474 123.883 54.374C123.616 54.2915 123.318 54.2227 122.989 54.1677C122.661 54.1127 122.332 54.0485 122.003 53.9752C121.683 53.9018 121.389 53.7964 121.123 53.6589C120.856 53.5122 120.638 53.3151 120.469 53.0675C120.309 52.82 120.229 52.4899 120.229 52.0773C120.229 51.6831 120.336 51.3301 120.549 51.0183C120.763 50.7066 121.074 50.4636 121.483 50.2894C121.901 50.1061 122.407 50.0144 123.003 50.0144C123.456 50.0144 123.909 50.0786 124.363 50.2069C124.816 50.3261 125.189 50.4866 125.483 50.6883L125.069 51.4722C124.758 51.2521 124.425 51.0963 124.069 51.0046C123.714 50.9037 123.358 50.8533 123.003 50.8533C122.372 50.8533 121.905 50.9679 121.603 51.1971C121.309 51.4172 121.163 51.7014 121.163 52.0498C121.163 52.3249 121.243 52.5403 121.403 52.6962C121.572 52.852 121.789 52.9758 122.056 53.0675C122.332 53.15 122.629 53.2188 122.949 53.2738C123.278 53.3288 123.603 53.3976 123.923 53.4801C124.252 53.5534 124.549 53.6589 124.816 53.7964C125.092 53.9248 125.309 54.1127 125.469 54.3603C125.638 54.5987 125.723 54.915 125.723 55.3092C125.723 55.731 125.607 56.0977 125.376 56.4094C125.154 56.712 124.825 56.9504 124.389 57.1246C123.963 57.2896 123.443 57.3721 122.829 57.3721ZM130.34 57.3721C129.682 57.3721 129.175 57.1888 128.82 56.822C128.464 56.4553 128.286 55.9373 128.286 55.268V48.4878H129.233V55.2129C129.233 55.6347 129.335 55.9602 129.54 56.1894C129.753 56.4186 130.055 56.5332 130.446 56.5332C130.864 56.5332 131.211 56.4094 131.486 56.1619L131.82 56.8633C131.633 57.0375 131.406 57.1658 131.14 57.2484C130.882 57.3309 130.615 57.3721 130.34 57.3721ZM127.033 50.8946V50.0831H131.366V50.8946H127.033ZM134.21 57.3034V50.0831H135.157V57.3034H134.21ZM134.69 48.4878C134.495 48.4878 134.33 48.4191 134.197 48.2815C134.064 48.144 133.997 47.979 133.997 47.7864C133.997 47.5939 134.064 47.4334 134.197 47.3051C134.33 47.1675 134.495 47.0988 134.69 47.0988C134.886 47.0988 135.05 47.163 135.184 47.2913C135.317 47.4197 135.384 47.5801 135.384 47.7727C135.384 47.9744 135.317 48.144 135.184 48.2815C135.059 48.4191 134.895 48.4878 134.69 48.4878ZM141.364 57.3721C140.671 57.3721 140.049 57.2163 139.498 56.9045C138.955 56.5836 138.529 56.1481 138.218 55.598C137.906 55.0387 137.751 54.4015 137.751 53.6864C137.751 52.9621 137.906 52.3249 138.218 51.7747C138.529 51.2246 138.955 50.7937 139.498 50.482C140.049 50.1702 140.671 50.0144 141.364 50.0144C141.96 50.0144 142.498 50.1336 142.978 50.372C143.458 50.6103 143.835 50.9679 144.111 51.4447L143.404 51.9398C143.164 51.573 142.866 51.3026 142.511 51.1284C142.155 50.9542 141.769 50.8671 141.351 50.8671C140.853 50.8671 140.404 50.9862 140.004 51.2246C139.604 51.4538 139.289 51.7793 139.058 52.2011C138.826 52.6228 138.711 53.1179 138.711 53.6864C138.711 54.2548 138.826 54.7499 139.058 55.1717C139.289 55.5934 139.604 55.9235 140.004 56.1619C140.404 56.3911 140.853 56.5057 141.351 56.5057C141.769 56.5057 142.155 56.4186 142.511 56.2444C142.866 56.0702 143.164 55.8043 143.404 55.4467L144.111 55.9418C143.835 56.4094 143.458 56.767 142.978 57.0146C142.498 57.2529 141.96 57.3721 141.364 57.3721ZM152.673 57.3721C152.095 57.3721 151.549 57.2896 151.033 57.1246C150.518 56.9504 150.113 56.7349 149.82 56.4782L150.246 55.708C150.531 55.9281 150.895 56.1206 151.34 56.2857C151.784 56.4415 152.251 56.5195 152.74 56.5195C153.406 56.5195 153.886 56.414 154.18 56.2031C154.473 55.9831 154.62 55.6943 154.62 55.3367C154.62 55.0708 154.535 54.8645 154.366 54.7178C154.206 54.562 153.993 54.4474 153.726 54.374C153.46 54.2915 153.162 54.2227 152.833 54.1677C152.504 54.1127 152.175 54.0485 151.846 53.9752C151.526 53.9018 151.233 53.7964 150.966 53.6589C150.7 53.5122 150.482 53.3151 150.313 53.0675C150.153 52.82 150.073 52.4899 150.073 52.0773C150.073 51.6831 150.18 51.3301 150.393 51.0183C150.606 50.7066 150.918 50.4636 151.326 50.2894C151.744 50.1061 152.251 50.0144 152.846 50.0144C153.3 50.0144 153.753 50.0786 154.206 50.2069C154.66 50.3261 155.033 50.4866 155.326 50.6883L154.913 51.4722C154.602 51.2521 154.269 51.0963 153.913 51.0046C153.558 50.9037 153.202 50.8533 152.846 50.8533C152.215 50.8533 151.749 50.9679 151.446 51.1971C151.153 51.4172 151.006 51.7014 151.006 52.0498C151.006 52.3249 151.086 52.5403 151.246 52.6962C151.415 52.852 151.633 52.9758 151.9 53.0675C152.175 53.15 152.473 53.2188 152.793 53.2738C153.122 53.3288 153.446 53.3976 153.766 53.4801C154.095 53.5534 154.393 53.6589 154.66 53.7964C154.935 53.9248 155.153 54.1127 155.313 54.3603C155.482 54.5987 155.566 54.915 155.566 55.3092C155.566 55.731 155.451 56.0977 155.22 56.4094C154.998 56.712 154.669 56.9504 154.233 57.1246C153.806 57.2896 153.286 57.3721 152.673 57.3721ZM160.944 57.3721C160.215 57.3721 159.575 57.2163 159.024 56.9045C158.473 56.5836 158.042 56.1481 157.731 55.598C157.42 55.0387 157.264 54.4015 157.264 53.6864C157.264 52.9712 157.411 52.3386 157.704 51.7885C158.006 51.2384 158.415 50.8075 158.931 50.4957C159.455 50.1748 160.042 50.0144 160.691 50.0144C161.349 50.0144 161.931 50.1702 162.438 50.482C162.953 50.7845 163.358 51.2155 163.651 51.7747C163.944 52.3249 164.091 52.9621 164.091 53.6864C164.091 53.7322 164.086 53.7826 164.078 53.8377C164.078 53.8835 164.078 53.9339 164.078 53.9889H157.984V53.26H163.571L163.198 53.5489C163.198 53.0262 163.086 52.5632 162.864 52.1598C162.651 51.7472 162.358 51.4263 161.984 51.1971C161.611 50.9679 161.18 50.8533 160.691 50.8533C160.211 50.8533 159.78 50.9679 159.398 51.1971C159.015 51.4263 158.718 51.7472 158.504 52.1598C158.291 52.5724 158.184 53.0446 158.184 53.5764V53.7276C158.184 54.2778 158.3 54.7637 158.531 55.1854C158.771 55.598 159.1 55.9235 159.518 56.1619C159.944 56.3911 160.429 56.5057 160.971 56.5057C161.398 56.5057 161.793 56.4278 162.158 56.2719C162.531 56.116 162.851 55.8777 163.118 55.5568L163.651 56.1894C163.34 56.5745 162.949 56.8679 162.478 57.0696C162.015 57.2713 161.504 57.3721 160.944 57.3721ZM166.684 57.3034V50.0831H167.591V52.0498L167.498 51.706C167.693 51.1559 168.022 50.7387 168.484 50.4545C168.946 50.1611 169.52 50.0144 170.204 50.0144V50.9633C170.169 50.9633 170.133 50.9633 170.098 50.9633C170.062 50.9542 170.026 50.9496 169.991 50.9496C169.253 50.9496 168.675 51.1834 168.258 51.651C167.84 52.1094 167.631 52.7649 167.631 53.6176V57.3034H166.684ZM174.698 57.3034L171.591 50.0831H172.578L175.431 56.7808H174.964L177.858 50.0831H178.791L175.671 57.3034H174.698ZM180.791 57.3034V50.0831H181.738V57.3034H180.791ZM181.271 48.4878C181.075 48.4878 180.911 48.4191 180.778 48.2815C180.644 48.144 180.578 47.979 180.578 47.7864C180.578 47.5939 180.644 47.4334 180.778 47.3051C180.911 47.1675 181.075 47.0988 181.271 47.0988C181.466 47.0988 181.631 47.163 181.764 47.2913C181.898 47.4197 181.964 47.5801 181.964 47.7727C181.964 47.9744 181.898 48.144 181.764 48.2815C181.64 48.4191 181.475 48.4878 181.271 48.4878ZM187.945 57.3721C187.252 57.3721 186.629 57.2163 186.078 56.9045C185.536 56.5836 185.109 56.1481 184.798 55.598C184.487 55.0387 184.332 54.4015 184.332 53.6864C184.332 52.9621 184.487 52.3249 184.798 51.7747C185.109 51.2246 185.536 50.7937 186.078 50.482C186.629 50.1702 187.252 50.0144 187.945 50.0144C188.541 50.0144 189.078 50.1336 189.558 50.372C190.038 50.6103 190.416 50.9679 190.692 51.4447L189.985 51.9398C189.745 51.573 189.447 51.3026 189.092 51.1284C188.736 50.9542 188.349 50.8671 187.932 50.8671C187.434 50.8671 186.985 50.9862 186.585 51.2246C186.185 51.4538 185.869 51.7793 185.638 52.2011C185.407 52.6228 185.292 53.1179 185.292 53.6864C185.292 54.2548 185.407 54.7499 185.638 55.1717C185.869 55.5934 186.185 55.9235 186.585 56.1619C186.985 56.3911 187.434 56.5057 187.932 56.5057C188.349 56.5057 188.736 56.4186 189.092 56.2444C189.447 56.0702 189.745 55.8043 189.985 55.4467L190.692 55.9418C190.416 56.4094 190.038 56.767 189.558 57.0146C189.078 57.2529 188.541 57.3721 187.945 57.3721ZM196.074 57.3721C195.345 57.3721 194.705 57.2163 194.154 56.9045C193.603 56.5836 193.172 56.1481 192.861 55.598C192.549 55.0387 192.394 54.4015 192.394 53.6864C192.394 52.9712 192.541 52.3386 192.834 51.7885C193.136 51.2384 193.545 50.8075 194.061 50.4957C194.585 50.1748 195.172 50.0144 195.821 50.0144C196.478 50.0144 197.061 50.1702 197.567 50.482C198.083 50.7845 198.487 51.2155 198.781 51.7747C199.074 52.3249 199.221 52.9621 199.221 53.6864C199.221 53.7322 199.216 53.7826 199.207 53.8377C199.207 53.8835 199.207 53.9339 199.207 53.9889H193.114V53.26H198.701L198.327 53.5489C198.327 53.0262 198.216 52.5632 197.994 52.1598C197.781 51.7472 197.487 51.4263 197.114 51.1971C196.741 50.9679 196.309 50.8533 195.821 50.8533C195.341 50.8533 194.909 50.9679 194.527 51.1971C194.145 51.4263 193.847 51.7472 193.634 52.1598C193.421 52.5724 193.314 53.0446 193.314 53.5764V53.7276C193.314 54.2778 193.429 54.7637 193.661 55.1854C193.901 55.598 194.229 55.9235 194.647 56.1619C195.074 56.3911 195.558 56.5057 196.101 56.5057C196.527 56.5057 196.923 56.4278 197.287 56.2719C197.661 56.116 197.981 55.8777 198.247 55.5568L198.781 56.1894C198.469 56.5745 198.078 56.8679 197.607 57.0696C197.145 57.2713 196.634 57.3721 196.074 57.3721Z" fill="#1B1C25"/>
<mask id="mask0_791_426" style="mask-type:luminance" maskUnits="userSpaceOnUse" x="0" y="0" width="72" height="68">
<path d="M71.1111 0H0V68H71.1111V0Z" fill="white"/>
</mask>
<g mask="url(#mask0_791_426)">
<path d="M26.9643 0.777198C15.6002 2.91621 5.96205 11.5187 2.21886 22.9113C0.672266 27.6078 0.156736 33.5599 0.829163 38.4424C1.05331 39.9072 1.25504 41.1395 1.29987 41.2092C1.3447 41.2557 2.33093 40.4187 3.47406 39.3259C7.84485 35.2339 11.0277 32.6997 15.5554 29.7236C30.0351 20.1678 48.8631 14.9133 67.2653 15.2388C69.7533 15.262 71.524 15.2388 71.1878 15.1458C69.8205 14.797 65.6739 14.2623 62.3341 13.9832L58.8151 13.7275L57.672 12.2628C53.3684 6.77574 46.9354 2.70696 39.7628 0.963205C36.8714 0.265698 30.1695 0.172698 26.9643 0.777198ZM38.5974 3.89272C43.013 4.89247 47.0251 6.79899 50.4994 9.51923C52.5839 11.17 54.9374 13.4485 54.7357 13.6578C54.6908 13.7043 53.2787 13.867 51.6201 14.0065C35.9749 15.3318 20.4866 20.9816 6.09654 30.5839C4.7965 31.4441 3.67579 32.1649 3.63096 32.1649C3.42923 32.1649 3.8551 28.7471 4.28098 26.7941C5.51376 21.4698 7.88967 16.936 11.588 12.9138C16.4968 7.58949 22.1676 4.59023 29.542 3.47422C31.0213 3.26497 37.0059 3.52072 38.5974 3.89272Z" fill="#5BB318"/>
<path d="M60.3616 18.0056C56.439 18.4241 46.9578 20.4468 46.4198 20.9584C46.3301 21.0513 47.8543 21.0513 49.7819 20.9816C52.7182 20.8653 53.6148 20.7491 55.139 20.2608C56.7304 19.726 62.7823 18.1915 64.3961 17.9126C65.4272 17.7265 62.2892 17.8196 60.3616 18.0056Z" fill="#1B1C25"/>
<path d="M63.6122 21.4698C49.536 25.2131 36.6702 33.0716 25.1716 44.9524C21.0698 49.1607 18.3577 52.439 15.1524 56.903L12.8438 60.1348L14.3006 61.2508C17.4611 63.6223 22.1233 65.6916 26.7406 66.7146C29.6545 67.3888 36.334 67.3191 39.5168 66.5984C43.8203 65.6451 47.1601 64.1571 51.0602 61.4368C57.762 56.7868 62.6708 49.2072 64.5088 40.6977C64.7329 39.6979 64.9346 37.4194 65.0019 34.9317C65.1364 30.4211 64.8675 27.8171 63.8588 24.2599C63.5674 23.1671 63.3432 22.2603 63.388 22.2138C63.4105 22.1673 64.3967 21.7953 65.5398 21.3536C68.252 20.3305 67.7813 20.3538 63.6122 21.4698ZM61.0122 25.3061C63.3657 33.5134 62.0656 42.8599 57.5603 50.114C53.7275 56.252 48.2136 60.6231 41.5341 62.8085C38.3737 63.8316 36.4236 64.1339 32.6804 64.1105C29.0269 64.1105 26.1803 63.6223 23.0646 62.4598C21.7646 61.9715 18.5594 60.437 18.268 60.1813C18.2232 60.1348 18.7163 59.2745 19.3663 58.2748C28.3769 44.348 41.3548 32.9322 57.112 25.0504C58.7259 24.2366 60.138 23.5856 60.2725 23.5856C60.4069 23.5623 60.7432 24.3529 61.0122 25.3061Z" fill="#5BB318"/>
<path d="M36.9389 24.5621C35.213 25.3758 32.6578 26.6546 31.2681 27.3986L28.7129 28.7936L31.6491 28.8634L34.563 28.9332L37.6561 27.3289C39.3597 26.4453 42.0046 25.1666 43.5512 24.4924C45.0978 23.8181 46.3978 23.2136 46.4426 23.1904C46.4874 23.1438 45.0753 23.0974 43.3046 23.0974L40.077 23.1206L36.9389 24.5621Z" fill="#1B1C25"/>
<path d="M22.6831 32.6997C21.3831 33.6297 19.6347 34.8852 18.8054 35.5362L17.2812 36.6987L20.1055 36.7684L22.9073 36.8382L24.6107 35.5362C25.5297 34.8154 27.3677 33.5134 28.6901 32.6299L31.1109 31.0023L28.085 31.0257H25.059L22.6831 32.6997Z" fill="#1B1C25"/>
<path d="M13.2466 40.0932C11.2293 41.837 4.10156 48.8818 4.10156 49.1143C4.10156 49.4165 6.47748 53.4155 6.70163 53.462C6.8137 53.5085 7.62059 52.5785 8.47237 51.416C10.1086 49.2072 16.5864 42.2554 19.1192 40.0002L20.5761 38.6982L17.7295 38.675H14.8829L13.2466 40.0932Z" fill="#1B1C25"/>
</g>
</g>
<defs>
<clipPath id="clip0_791_426">
<rect width="200" height="68" fill="white"/>
</clipPath>
</defs>
</svg>
