<svg width="200" height="68" viewBox="0 0 200 68" fill="none" xmlns="http://www.w3.org/2000/svg">
<g clip-path="url(#clip0_878_545)">
<path d="M104.83 15.281H109.63V36.6743H104.83V15.281ZM95.4074 36.6743H90.6074V15.281H95.4074V36.6743ZM105.185 27.903H95.0519V23.7161H105.185V27.903ZM120.315 36.6743V19.3152H113.678V15.281H131.752V19.3152H125.115V36.6743H120.315ZM140.402 36.6743V19.3152H133.764V15.281H151.839V19.3152H145.201V36.6743H140.402ZM155.902 36.6743V15.281H164.88C166.737 15.281 168.337 15.5968 169.68 16.2284C171.024 16.8397 172.061 17.7259 172.791 18.8873C173.522 20.0486 173.887 21.4341 173.887 23.0437C173.887 24.6329 173.522 26.0082 172.791 27.1695C172.061 28.3309 171.024 29.2273 169.68 29.859C168.337 30.4702 166.737 30.7758 164.88 30.7758H158.569L160.702 28.5448V36.6743H155.902ZM160.702 29.0949L158.569 26.7417H164.613C166.095 26.7417 167.201 26.4157 167.932 25.7637C168.663 25.1117 169.028 24.2051 169.028 23.0437C169.028 21.862 168.663 20.9451 167.932 20.2931C167.201 19.6412 166.095 19.3152 164.613 19.3152H158.569L160.702 16.9619V29.0949Z" fill="#5BB318"/>
<path d="M89.668 57.3035V47.6765H90.6546V56.4233H95.8813V57.3035H89.668ZM100.735 57.3722C100.06 57.3722 99.4509 57.2164 98.9087 56.9046C98.3754 56.5837 97.9532 56.1482 97.642 55.5981C97.3309 55.0388 97.1754 54.4016 97.1754 53.6865C97.1754 52.9622 97.3309 52.3249 97.642 51.7748C97.9532 51.2247 98.3754 50.7938 98.9087 50.4821C99.442 50.1703 100.051 50.0145 100.735 50.0145C101.429 50.0145 102.042 50.1703 102.575 50.4821C103.118 50.7938 103.54 51.2247 103.842 51.7748C104.153 52.3249 104.309 52.9622 104.309 53.6865C104.309 54.4016 104.153 55.0388 103.842 55.5981C103.54 56.1482 103.118 56.5837 102.575 56.9046C102.033 57.2164 101.42 57.3722 100.735 57.3722ZM100.735 56.5058C101.242 56.5058 101.691 56.3912 102.082 56.162C102.473 55.9236 102.78 55.5935 103.002 55.1718C103.233 54.7409 103.349 54.2458 103.349 53.6865C103.349 53.118 103.233 52.6229 103.002 52.2012C102.78 51.7794 102.473 51.4539 102.082 51.2247C101.691 50.9863 101.246 50.8671 100.749 50.8671C100.251 50.8671 99.8065 50.9863 99.4154 51.2247C99.0243 51.4539 98.7132 51.7794 98.482 52.2012C98.2509 52.6229 98.1354 53.118 98.1354 53.6865C98.1354 54.2458 98.2509 54.7409 98.482 55.1718C98.7132 55.5935 99.0243 55.9236 99.4154 56.162C99.8065 56.3912 100.246 56.5058 100.735 56.5058ZM109.895 60.0403C109.255 60.0403 108.641 59.944 108.055 59.7515C107.468 59.5589 106.992 59.2839 106.628 58.9263L107.108 58.1836C107.437 58.4862 107.841 58.7246 108.321 58.8988C108.81 59.0822 109.326 59.1738 109.868 59.1738C110.757 59.1738 111.41 58.9584 111.828 58.5275C112.246 58.1057 112.455 57.4456 112.455 56.5471V54.7454L112.588 53.5077L112.495 52.2699V50.0832H113.401V56.4233C113.401 57.6702 113.104 58.5825 112.508 59.1601C111.921 59.7469 111.05 60.0403 109.895 60.0403ZM109.721 57.0284C109.055 57.0284 108.455 56.8817 107.921 56.5883C107.388 56.2858 106.966 55.8686 106.655 55.3368C106.352 54.805 106.201 54.1953 106.201 53.5077C106.201 52.82 106.352 52.2149 106.655 51.6923C106.966 51.1605 107.388 50.748 107.921 50.4546C108.455 50.1612 109.055 50.0145 109.721 50.0145C110.344 50.0145 110.904 50.1474 111.401 50.4133C111.899 50.6792 112.295 51.0734 112.588 51.596C112.881 52.1187 113.028 52.7559 113.028 53.5077C113.028 54.2595 112.881 54.8967 112.588 55.4193C112.295 55.9419 111.899 56.3408 111.401 56.6158C110.904 56.8909 110.344 57.0284 109.721 57.0284ZM109.815 56.162C110.33 56.162 110.788 56.052 111.188 55.8319C111.588 55.6027 111.904 55.291 112.135 54.8967C112.366 54.4933 112.481 54.0303 112.481 53.5077C112.481 52.9851 112.366 52.5267 112.135 52.1324C111.904 51.7382 111.588 51.431 111.188 51.211C110.788 50.9818 110.33 50.8671 109.815 50.8671C109.308 50.8671 108.85 50.9818 108.441 51.211C108.041 51.431 107.726 51.7382 107.495 52.1324C107.272 52.5267 107.161 52.9851 107.161 53.5077C107.161 54.0303 107.272 54.4933 107.495 54.8967C107.726 55.291 108.041 55.6027 108.441 55.8319C108.85 56.052 109.308 56.162 109.815 56.162ZM116.702 57.3035V50.0832H117.649V57.3035H116.702ZM117.182 48.4879C116.986 48.4879 116.822 48.4191 116.689 48.2816C116.555 48.1441 116.489 47.9791 116.489 47.7865C116.489 47.594 116.555 47.4335 116.689 47.3052C116.822 47.1676 116.986 47.0989 117.182 47.0989C117.378 47.0989 117.542 47.1631 117.675 47.2914C117.809 47.4198 117.875 47.5802 117.875 47.7728C117.875 47.9745 117.809 48.1441 117.675 48.2816C117.551 48.4191 117.386 48.4879 117.182 48.4879ZM122.829 57.3722C122.252 57.3722 121.705 57.2897 121.189 57.1247C120.674 56.9505 120.269 56.735 119.976 56.4783L120.403 55.7081C120.687 55.9282 121.052 56.1207 121.496 56.2858C121.941 56.4416 122.407 56.5195 122.896 56.5195C123.563 56.5195 124.043 56.4141 124.336 56.2032C124.629 55.9832 124.776 55.6944 124.776 55.3368C124.776 55.0709 124.692 54.8646 124.523 54.7179C124.363 54.5621 124.149 54.4475 123.883 54.3741C123.616 54.2916 123.318 54.2228 122.989 54.1678C122.661 54.1128 122.332 54.0486 122.003 53.9753C121.683 53.9019 121.389 53.7965 121.123 53.659C120.856 53.5123 120.638 53.3151 120.469 53.0676C120.309 52.82 120.229 52.49 120.229 52.0774C120.229 51.6831 120.336 51.3302 120.549 51.0184C120.763 50.7067 121.074 50.4637 121.483 50.2895C121.901 50.1062 122.407 50.0145 123.003 50.0145C123.456 50.0145 123.909 50.0786 124.363 50.207C124.816 50.3262 125.189 50.4867 125.483 50.6884L125.069 51.4723C124.758 51.2522 124.425 51.0964 124.069 51.0047C123.714 50.9038 123.358 50.8534 123.003 50.8534C122.372 50.8534 121.905 50.968 121.603 51.1972C121.309 51.4173 121.163 51.7015 121.163 52.0499C121.163 52.3249 121.243 52.5404 121.403 52.6963C121.572 52.8521 121.789 52.9759 122.056 53.0676C122.332 53.1501 122.629 53.2189 122.949 53.2739C123.278 53.3289 123.603 53.3977 123.923 53.4802C124.252 53.5535 124.549 53.659 124.816 53.7965C125.092 53.9249 125.309 54.1128 125.469 54.3604C125.638 54.5987 125.723 54.9151 125.723 55.3093C125.723 55.7311 125.607 56.0978 125.376 56.4095C125.154 56.7121 124.825 56.9505 124.389 57.1247C123.963 57.2897 123.443 57.3722 122.829 57.3722ZM130.34 57.3722C129.682 57.3722 129.175 57.1889 128.82 56.8221C128.464 56.4554 128.286 55.9373 128.286 55.268V48.4879H129.233V55.213C129.233 55.6348 129.335 55.9603 129.54 56.1895C129.753 56.4187 130.055 56.5333 130.446 56.5333C130.864 56.5333 131.211 56.4095 131.486 56.162L131.82 56.8634C131.633 57.0376 131.406 57.1659 131.14 57.2484C130.882 57.331 130.615 57.3722 130.34 57.3722ZM127.033 50.8947V50.0832H131.366V50.8947H127.033ZM134.21 57.3035V50.0832H135.157V57.3035H134.21ZM134.69 48.4879C134.495 48.4879 134.33 48.4191 134.197 48.2816C134.064 48.1441 133.997 47.9791 133.997 47.7865C133.997 47.594 134.064 47.4335 134.197 47.3052C134.33 47.1676 134.495 47.0989 134.69 47.0989C134.886 47.0989 135.05 47.1631 135.184 47.2914C135.317 47.4198 135.384 47.5802 135.384 47.7728C135.384 47.9745 135.317 48.1441 135.184 48.2816C135.059 48.4191 134.895 48.4879 134.69 48.4879ZM141.364 57.3722C140.671 57.3722 140.049 57.2164 139.498 56.9046C138.955 56.5837 138.529 56.1482 138.218 55.5981C137.906 55.0388 137.751 54.4016 137.751 53.6865C137.751 52.9622 137.906 52.3249 138.218 51.7748C138.529 51.2247 138.955 50.7938 139.498 50.4821C140.049 50.1703 140.671 50.0145 141.364 50.0145C141.96 50.0145 142.498 50.1337 142.978 50.372C143.458 50.6104 143.835 50.968 144.111 51.4448L143.404 51.9399C143.164 51.5731 142.866 51.3027 142.511 51.1284C142.155 50.9542 141.769 50.8671 141.351 50.8671C140.853 50.8671 140.404 50.9863 140.004 51.2247C139.604 51.4539 139.289 51.7794 139.058 52.2012C138.826 52.6229 138.711 53.118 138.711 53.6865C138.711 54.2549 138.826 54.75 139.058 55.1718C139.289 55.5935 139.604 55.9236 140.004 56.162C140.404 56.3912 140.853 56.5058 141.351 56.5058C141.769 56.5058 142.155 56.4187 142.511 56.2445C142.866 56.0703 143.164 55.8044 143.404 55.4468L144.111 55.9419C143.835 56.4095 143.458 56.7671 142.978 57.0147C142.498 57.253 141.96 57.3722 141.364 57.3722ZM152.673 57.3722C152.095 57.3722 151.549 57.2897 151.033 57.1247C150.518 56.9505 150.113 56.735 149.82 56.4783L150.246 55.7081C150.531 55.9282 150.895 56.1207 151.34 56.2858C151.784 56.4416 152.251 56.5195 152.74 56.5195C153.406 56.5195 153.886 56.4141 154.18 56.2032C154.473 55.9832 154.62 55.6944 154.62 55.3368C154.62 55.0709 154.535 54.8646 154.366 54.7179C154.206 54.5621 153.993 54.4475 153.726 54.3741C153.46 54.2916 153.162 54.2228 152.833 54.1678C152.504 54.1128 152.175 54.0486 151.846 53.9753C151.526 53.9019 151.233 53.7965 150.966 53.659C150.7 53.5123 150.482 53.3151 150.313 53.0676C150.153 52.82 150.073 52.49 150.073 52.0774C150.073 51.6831 150.18 51.3302 150.393 51.0184C150.606 50.7067 150.918 50.4637 151.326 50.2895C151.744 50.1062 152.251 50.0145 152.846 50.0145C153.3 50.0145 153.753 50.0786 154.206 50.207C154.66 50.3262 155.033 50.4867 155.326 50.6884L154.913 51.4723C154.602 51.2522 154.269 51.0964 153.913 51.0047C153.558 50.9038 153.202 50.8534 152.846 50.8534C152.215 50.8534 151.749 50.968 151.446 51.1972C151.153 51.4173 151.006 51.7015 151.006 52.0499C151.006 52.3249 151.086 52.5404 151.246 52.6963C151.415 52.8521 151.633 52.9759 151.9 53.0676C152.175 53.1501 152.473 53.2189 152.793 53.2739C153.122 53.3289 153.446 53.3977 153.766 53.4802C154.095 53.5535 154.393 53.659 154.66 53.7965C154.935 53.9249 155.153 54.1128 155.313 54.3604C155.482 54.5987 155.566 54.9151 155.566 55.3093C155.566 55.7311 155.451 56.0978 155.22 56.4095C154.998 56.7121 154.669 56.9505 154.233 57.1247C153.806 57.2897 153.286 57.3722 152.673 57.3722ZM160.944 57.3722C160.215 57.3722 159.575 57.2164 159.024 56.9046C158.473 56.5837 158.042 56.1482 157.731 55.5981C157.42 55.0388 157.264 54.4016 157.264 53.6865C157.264 52.9713 157.411 52.3387 157.704 51.7886C158.006 51.2385 158.415 50.8075 158.931 50.4958C159.455 50.1749 160.042 50.0145 160.691 50.0145C161.349 50.0145 161.931 50.1703 162.438 50.4821C162.953 50.7846 163.358 51.2155 163.651 51.7748C163.944 52.3249 164.091 52.9622 164.091 53.6865C164.091 53.7323 164.086 53.7827 164.078 53.8377C164.078 53.8836 164.078 53.934 164.078 53.989H157.984V53.2601H163.571L163.198 53.5489C163.198 53.0263 163.086 52.5633 162.864 52.1599C162.651 51.7473 162.358 51.4264 161.984 51.1972C161.611 50.968 161.18 50.8534 160.691 50.8534C160.211 50.8534 159.78 50.968 159.398 51.1972C159.015 51.4264 158.718 51.7473 158.504 52.1599C158.291 52.5725 158.184 53.0447 158.184 53.5764V53.7277C158.184 54.2778 158.3 54.7638 158.531 55.1855C158.771 55.5981 159.1 55.9236 159.518 56.162C159.944 56.3912 160.429 56.5058 160.971 56.5058C161.398 56.5058 161.793 56.4279 162.158 56.272C162.531 56.1161 162.851 55.8777 163.118 55.5569L163.651 56.1895C163.34 56.5746 162.949 56.868 162.478 57.0697C162.015 57.2714 161.504 57.3722 160.944 57.3722ZM166.684 57.3035V50.0832H167.591V52.0499L167.498 51.7061C167.693 51.156 168.022 50.7388 168.484 50.4546C168.946 50.1612 169.52 50.0145 170.204 50.0145V50.9634C170.169 50.9634 170.133 50.9634 170.098 50.9634C170.062 50.9542 170.026 50.9497 169.991 50.9497C169.253 50.9497 168.675 51.1835 168.258 51.6511C167.84 52.1095 167.631 52.765 167.631 53.6177V57.3035H166.684ZM174.698 57.3035L171.591 50.0832H172.578L175.431 56.7809H174.964L177.858 50.0832H178.791L175.671 57.3035H174.698ZM180.791 57.3035V50.0832H181.738V57.3035H180.791ZM181.271 48.4879C181.075 48.4879 180.911 48.4191 180.778 48.2816C180.644 48.1441 180.578 47.9791 180.578 47.7865C180.578 47.594 180.644 47.4335 180.778 47.3052C180.911 47.1676 181.075 47.0989 181.271 47.0989C181.466 47.0989 181.631 47.1631 181.764 47.2914C181.898 47.4198 181.964 47.5802 181.964 47.7728C181.964 47.9745 181.898 48.1441 181.764 48.2816C181.64 48.4191 181.475 48.4879 181.271 48.4879ZM187.945 57.3722C187.252 57.3722 186.629 57.2164 186.078 56.9046C185.536 56.5837 185.109 56.1482 184.798 55.5981C184.487 55.0388 184.332 54.4016 184.332 53.6865C184.332 52.9622 184.487 52.3249 184.798 51.7748C185.109 51.2247 185.536 50.7938 186.078 50.4821C186.629 50.1703 187.252 50.0145 187.945 50.0145C188.541 50.0145 189.078 50.1337 189.558 50.372C190.038 50.6104 190.416 50.968 190.692 51.4448L189.985 51.9399C189.745 51.5731 189.447 51.3027 189.092 51.1284C188.736 50.9542 188.349 50.8671 187.932 50.8671C187.434 50.8671 186.985 50.9863 186.585 51.2247C186.185 51.4539 185.869 51.7794 185.638 52.2012C185.407 52.6229 185.292 53.118 185.292 53.6865C185.292 54.2549 185.407 54.75 185.638 55.1718C185.869 55.5935 186.185 55.9236 186.585 56.162C186.985 56.3912 187.434 56.5058 187.932 56.5058C188.349 56.5058 188.736 56.4187 189.092 56.2445C189.447 56.0703 189.745 55.8044 189.985 55.4468L190.692 55.9419C190.416 56.4095 190.038 56.7671 189.558 57.0147C189.078 57.253 188.541 57.3722 187.945 57.3722ZM196.074 57.3722C195.345 57.3722 194.705 57.2164 194.154 56.9046C193.603 56.5837 193.172 56.1482 192.861 55.5981C192.549 55.0388 192.394 54.4016 192.394 53.6865C192.394 52.9713 192.541 52.3387 192.834 51.7886C193.136 51.2385 193.545 50.8075 194.061 50.4958C194.585 50.1749 195.172 50.0145 195.821 50.0145C196.478 50.0145 197.061 50.1703 197.567 50.4821C198.083 50.7846 198.487 51.2155 198.781 51.7748C199.074 52.3249 199.221 52.9622 199.221 53.6865C199.221 53.7323 199.216 53.7827 199.207 53.8377C199.207 53.8836 199.207 53.934 199.207 53.989H193.114V53.2601H198.701L198.327 53.5489C198.327 53.0263 198.216 52.5633 197.994 52.1599C197.781 51.7473 197.487 51.4264 197.114 51.1972C196.741 50.968 196.309 50.8534 195.821 50.8534C195.341 50.8534 194.909 50.968 194.527 51.1972C194.145 51.4264 193.847 51.7473 193.634 52.1599C193.421 52.5725 193.314 53.0447 193.314 53.5764V53.7277C193.314 54.2778 193.429 54.7638 193.661 55.1855C193.901 55.5981 194.229 55.9236 194.647 56.162C195.074 56.3912 195.558 56.5058 196.101 56.5058C196.527 56.5058 196.923 56.4279 197.287 56.272C197.661 56.1161 197.981 55.8777 198.247 55.5569L198.781 56.1895C198.469 56.5746 198.078 56.868 197.607 57.0697C197.145 57.2714 196.634 57.3722 196.074 57.3722Z" fill="white"/>
<mask id="mask0_878_545" style="mask-type:luminance" maskUnits="userSpaceOnUse" x="0" y="0" width="72" height="68">
<path d="M71.1111 0H0V68H71.1111V0Z" fill="white"/>
</mask>
<g mask="url(#mask0_878_545)">
<path d="M26.9643 0.777305C15.6002 2.91632 5.96205 11.5188 2.21886 22.9114C0.672266 27.6079 0.156736 33.56 0.829163 38.4425C1.05331 39.9073 1.25504 41.1396 1.29987 41.2093C1.3447 41.2558 2.33093 40.4188 3.47406 39.326C7.84485 35.234 11.0277 32.6998 15.5554 29.7237C30.0351 20.1679 48.8631 14.9134 67.2653 15.2389C69.7533 15.2621 71.524 15.2389 71.1878 15.1459C69.8206 14.7971 65.6739 14.2624 62.3341 13.9833L58.8151 13.7276L57.672 12.2629C53.3684 6.77584 46.9354 2.70707 39.7628 0.963312C36.8714 0.265805 30.1695 0.172805 26.9643 0.777305ZM38.5974 3.89283C43.013 4.89258 47.0251 6.79909 50.4994 9.51934C52.5839 11.1701 54.9374 13.4486 54.7357 13.6579C54.6908 13.7044 53.2787 13.8671 51.6201 14.0066C35.9749 15.3319 20.4866 20.9817 6.09654 30.584C4.7965 31.4442 3.67579 32.165 3.63096 32.165C3.42923 32.165 3.8551 28.7472 4.28098 26.7942C5.51376 21.4699 7.88967 16.9362 11.588 12.9139C16.4968 7.5896 22.1676 4.59033 29.542 3.47432C31.0213 3.26507 37.0059 3.52082 38.5974 3.89283Z" fill="#5BB318"/>
<path d="M60.3616 18.0057C56.439 18.4242 46.9578 20.4469 46.4198 20.9585C46.3301 21.0515 47.8543 21.0515 49.7819 20.9817C52.7182 20.8654 53.6148 20.7492 55.139 20.2609C56.7304 19.7261 62.7823 18.1916 64.3961 17.9127C65.4272 17.7266 62.2892 17.8197 60.3616 18.0057Z" fill="white"/>
<path d="M63.6122 21.47C49.536 25.2133 36.6702 33.0718 25.1716 44.9526C21.0698 49.1609 18.3577 52.4392 15.1524 56.9032L12.8438 60.1349L14.3006 61.251C17.4611 63.6225 22.1233 65.6918 26.7406 66.7147C29.6545 67.389 36.334 67.3192 39.5168 66.5985C43.8203 65.6452 47.1601 64.1572 51.0602 61.4369C57.762 56.787 62.6708 49.2074 64.5088 40.6979C64.7329 39.6981 64.9346 37.4196 65.0019 34.9318C65.1364 30.4213 64.8675 27.8173 63.8588 24.26C63.5674 23.1672 63.3432 22.2605 63.388 22.214C63.4105 22.1675 64.3967 21.7955 65.5398 21.3538C68.252 20.3307 67.7813 20.354 63.6122 21.47ZM61.0122 25.3062C63.3657 33.5135 62.0656 42.8601 57.5603 50.1142C53.7275 56.2522 48.2136 60.6232 41.5341 62.8087C38.3737 63.8318 36.4236 64.134 32.6804 64.1107C29.0269 64.1107 26.1803 63.6225 23.0646 62.46C21.7646 61.9717 18.5594 60.4372 18.268 60.1815C18.2232 60.1349 18.7163 59.2747 19.3663 58.2749C28.3769 44.3482 41.3548 32.9323 57.112 25.0505C58.7259 24.2367 60.138 23.5858 60.2725 23.5858C60.4069 23.5625 60.7432 24.353 61.0122 25.3062Z" fill="#5BB318"/>
<path d="M36.9389 24.5622C35.213 25.3759 32.6578 26.6547 31.2681 27.3987L28.7129 28.7937L31.6491 28.8634L34.563 28.9332L37.6561 27.3289C39.3597 26.4454 42.0046 25.1667 43.5512 24.4924C45.0978 23.8181 46.3978 23.2136 46.4426 23.1904C46.4874 23.1439 45.0753 23.0974 43.3046 23.0974L40.077 23.1206L36.9389 24.5622Z" fill="white"/>
<path d="M22.6831 32.6998C21.3831 33.6298 19.6347 34.8852 18.8054 35.5363L17.2812 36.6988L20.1055 36.7685L22.9073 36.8383L24.6107 35.5363C25.5297 34.8155 27.3677 33.5135 28.6901 32.63L31.1109 31.0024L28.085 31.0257H25.059L22.6831 32.6998Z" fill="white"/>
<path d="M13.2466 40.0933C11.2293 41.837 4.10156 48.8818 4.10156 49.1143C4.10156 49.4166 6.47748 53.4156 6.70163 53.4621C6.8137 53.5086 7.62059 52.5786 8.47237 51.4161C10.1086 49.2073 16.5864 42.2555 19.1192 40.0003L20.5761 38.6983L17.7295 38.675H14.8829L13.2466 40.0933Z" fill="white"/>
</g>
</g>
<defs>
<clipPath id="clip0_878_545">
<rect width="200" height="68" fill="white"/>
</clipPath>
</defs>
</svg>
